<mxfile host="Electron" agent="Mozilla/5.0 (Windows NT 10.0; Win64; x64) AppleWebKit/537.36 (KHTML, like Gecko) draw.io/26.1.1 Chrome/132.0.6834.210 Electron/34.3.3 Safari/537.36" version="26.1.1">
  <diagram id="arch-1" name="Architecture">
    <mxGraphModel dx="1880" dy="496" grid="1" gridSize="10" guides="1" tooltips="1" connect="1" arrows="1" fold="1" page="1" pageScale="1" pageWidth="1100" pageHeight="850" math="0" shadow="0">
      <root>
        <mxCell id="0" />
        <mxCell id="1" parent="0" />
        <mxCell id="user" value="Cliente/Vendedor" style="rounded=1;whiteSpace=wrap;html=1;fillColor=#ffffff;strokeColor=#000000;strokeWidth=1.2;" parent="1" vertex="1">
          <mxGeometry x="-16" y="40" width="120" height="60" as="geometry" />
        </mxCell>
        <mxCell id="api" value="Web API (.NET)" style="rounded=1;whiteSpace=wrap;html=1;fillColor=#dae8fc;strokeColor=#6c8ebf;strokeWidth=1.2;" parent="1" vertex="1">
          <mxGeometry x="250" y="40" width="160" height="60" as="geometry" />
        </mxCell>
        <mxCell id="app" value="Application Layer&#xa;(Use Cases)" style="rounded=1;whiteSpace=wrap;html=1;fillColor=#dae8fc;strokeColor=#6c8ebf;strokeWidth=1.2;" parent="1" vertex="1">
          <mxGeometry x="250" y="140" width="160" height="60" as="geometry" />
        </mxCell>
        <mxCell id="BVIone2DRciPhW3kckhC-1" value="" style="edgeStyle=orthogonalEdgeStyle;rounded=0;orthogonalLoop=1;jettySize=auto;html=1;" edge="1" parent="1" source="domain" target="infra">
          <mxGeometry relative="1" as="geometry" />
        </mxCell>
        <mxCell id="domain" value="Domain Layer&#xa;(Entidades, Regras)" style="rounded=1;whiteSpace=wrap;html=1;fillColor=#d5e8d4;strokeColor=#82b366;strokeWidth=1.2;" parent="1" vertex="1">
          <mxGeometry x="250" y="262" width="160" height="60" as="geometry" />
        </mxCell>
        <mxCell id="infra" value="Infrastructure&#xa;(EF Core, Repos)" style="rounded=1;whiteSpace=wrap;html=1;fillColor=#f5f5f5;strokeColor=#666666;strokeWidth=1.2;" parent="1" vertex="1">
          <mxGeometry x="250" y="362" width="160" height="60" as="geometry" />
        </mxCell>
        <mxCell id="db" value="Banco de Dados" style="shape=cylinder;whiteSpace=wrap;html=1;boundedLbl=1;fillColor=#f5f5f5;strokeColor=#666666;strokeWidth=1.2;" parent="1" vertex="1">
          <mxGeometry x="480" y="362" width="120" height="60" as="geometry" />
        </mxCell>
        <mxCell id="payment" value="Gateway de Pagamento" style="rounded=1;whiteSpace=wrap;html=1;fillColor=#ffe6cc;strokeColor=#d79b00;strokeWidth=1.2;" parent="1" vertex="1">
          <mxGeometry x="480" y="140" width="160" height="60" as="geometry" />
        </mxCell>
        <mxCell id="e1" value="HTTP" style="endArrow=block;html=1;strokeWidth=1.4;" parent="1" source="user" target="api" edge="1">
          <mxGeometry relative="1" as="geometry" />
        </mxCell>
        <mxCell id="e2" value="Use Case" style="endArrow=block;html=1;strokeWidth=1.4;" parent="1" source="api" target="app" edge="1">
          <mxGeometry relative="1" as="geometry" />
        </mxCell>
        <mxCell id="e3" value="Regras" style="endArrow=block;html=1;strokeWidth=1.4;exitX=0.5;exitY=1;exitDx=0;exitDy=0;" parent="1" source="app" target="domain" edge="1">
          <mxGeometry relative="1" as="geometry">
            <mxPoint x="330" y="260" as="sourcePoint" />
          </mxGeometry>
        </mxCell>
        <mxCell id="e5" value="SQL" style="endArrow=block;html=1;strokeWidth=1.4;" parent="1" source="infra" target="db" edge="1">
          <mxGeometry relative="1" as="geometry" />
        </mxCell>
        <mxCell id="e6" value="API Pagamento" style="endArrow=block;html=1;strokeWidth=1.4;" parent="1" source="app" target="payment" edge="1">
          <mxGeometry relative="1" as="geometry" />
        </mxCell>
      </root>
    </mxGraphModel>
  </diagram>
</mxfile>
